<?xml version="1.0" encoding="utf-8"?>
<!-- Generator: Adobe Illustrator 23.0.2, SVG Export Plug-In . SVG Version: 6.00 Build 0)  -->
<svg version="1.1" id="Layer_1" xmlns="http://www.w3.org/2000/svg" xmlns:xlink="http://www.w3.org/1999/xlink" x="0px" y="0px"
	 viewBox="0 0 55 37" style="enable-background:new 0 0 55 37;" xml:space="preserve">
<style type="text/css">
	.st0{fill:#F4D30B;}
</style>
<image style="display:none;overflow:visible;" width="97" height="91" xlink:href="BE8C8E7D.jpg"  transform="matrix(1 0 0 1 -21 -31)">
</image>
<g>
	<ellipse class="st0" cx="27.5" cy="14.5" rx="24.5" ry="13.5"/>
	<g>
		<path class="st0" d="M3,22.4v6.2C4.5,29.8,6.2,31,8,32v-5.7C6,25.2,4.3,23.8,3,22.4z"/>
		<path class="st0" d="M11,33.5c2.8,1.2,5.8,2.1,9,2.7v-5.8c-3.3-0.5-6.3-1.4-9-2.6V33.5z"/>
		<path class="st0" d="M23,30.8v5.8c1.5,0.2,3,0.2,4.5,0.2s3-0.1,4.5-0.2v-5.8c-1.5,0.1-3,0.2-4.5,0.2S24.5,30.9,23,30.8z"/>
		<path class="st0" d="M35,36.2c3.2-0.6,6.3-1.5,9-2.7v-5.7c-2.7,1.2-5.7,2-9,2.6V36.2z"/>
		<path class="st0" d="M47,26.3V32c1.8-1,3.5-2.2,5-3.5v-6.2C50.7,23.8,49,25.2,47,26.3z"/>
	</g>
</g>
</svg>
